PathFileType	4	(X/Y/Z)	./resultDataOpenSim/trcMotMarkerGrf/sub10/qtm-02-02.trc
DataRate	CameraRate	NumFrames	NumMarkers	Units	OrigDataRate	OrigDataStartFrame	OrigNumFrames
250.000000	250.000000	8	24	m	250.000000	62	491
Frame#	Time	L.Toe.Tip			R.Toe.Tip			L.Ankle.Lat			R.Ankle.Lat			L.Ankle.Med			R.Ankle.Med			L.Heel			R.Heel			L.Knee.Lat			R.Knee.Lat			L.Knee.Med			R.Knee.Med			L.Thigh.Upper			R.Thigh.Upper			L.ASIS			R.ASIS			V.Sacral			L.Acromium			R.Acromium			C7			L.Elbow			R.Elbow			L.Wrist.Lat			R.Wrist.Lat
		X1	Y1	Z1	X2	Y2	Z2	X3	Y3	Z3	X4	Y4	Z4	X5	Y5	Z5	X6	Y6	Z6	X7	Y7	Z7	X8	Y8	Z8	X9	Y9	Z9	X10	Y10	Z10	X11	Y11	Z11	X12	Y12	Z12	X13	Y13	Z13	X14	Y14	Z14	X15	Y15	Z15	X16	Y16	Z16	X17	Y17	Z17	X18	Y18	Z18	X19	Y19	Z19	X20	Y20	Z20	X21	Y21	Z21	X22	Y22	Z22	X23	Y23	Z23	X24	Y24	Z24

62	0.244	-1.4495859	0.065014067	-0.21338001	-0.76490299	0.044018024	-0.032124001	-1.4325026	0.20263285	-0.24566605	-0.90305059	0.049307291	0.006382053	-1.4075486	0.19349338	-0.16606666	-0.88976738	0.082580706	-0.075954812	-1.4690291	0.25411035	-0.19933322	-0.95361259	0.026269442	-0.041989421	-1.1224351	0.41735562	-0.25592676	-0.92384571	0.45208107	0.050089663	-1.106337	0.37509906	-0.14163305	-0.93276291	0.45722498	-0.078314493	-1.0656386	0.79198393	-0.28256574	-1.0101657	0.86767345	0.096232497	-0.99591204	0.90571609	-0.23057044	-0.96083728	0.9446824	0.0047444674	-1.1754644	0.94158921	-0.084019557	-1.0187745	1.3943463	-0.26428315	-1.0679417	1.3907675	0.055882517	-1.1229114	1.4229193	-0.11830937	-1.062479	1.0474469	-0.32344804	-1.2221674	1.0822715	0.074084251	-0.86542092	0.90853692	-0.25035721	-1.1883575	0.85850459	0.16129228
63	0.248	-1.4404099	0.067816547	-0.21236643	-0.76456952	0.043603361	-0.032119651	-1.4222226	0.20525168	-0.24486646	-0.90287098	0.049266953	0.0064120005	-1.3973759	0.19594408	-0.16513219	-0.8894693	0.082528475	-0.07592212	-1.4584747	0.25699583	-0.19850745	-0.95352436	0.02634663	-0.041884309	-1.1100808	0.4166376	-0.25562161	-0.92110782	0.45205247	0.050728252	-1.0945016	0.37520637	-0.14065126	-0.93043884	0.45691704	-0.077581088	-1.0590284	0.79192304	-0.28182404	-1.0054734	0.86798444	0.09677448	-0.99007751	0.90609867	-0.22997396	-0.95566704	0.94513614	0.0055675735	-1.1698228	0.94185576	-0.084038982	-1.0132339	1.394944	-0.26367666	-1.0617813	1.3911828	0.056646012	-1.11731	1.4235228	-0.11742376	-1.0583485	1.0484011	-0.32387724	-1.2150328	1.0822601	0.075569896	-0.86214089	0.90810131	-0.25145816	-1.1810406	0.85831332	0.16217404
64	0.252	-1.4301019	0.070507526	-0.21128828	-0.76426142	0.043237945	-0.032113539	-1.4118103	0.20776047	-0.2439834	-0.90271065	0.04923792	0.0064315482	-1.3870311	0.19844975	-0.16413347	-0.88917617	0.082492652	-0.075921368	-1.4481166	0.2595944	-0.19756824	-0.95345442	0.026412885	-0.041812212	-1.0976579	0.41604851	-0.25523909	-0.91847631	0.45210578	0.051298228	-1.0826548	0.3755547	-0.13963104	-0.92798041	0.45668299	-0.076952797	-1.0524483	0.79193709	-0.28098333	-1.0008165	0.86824408	0.097262954	-0.98429103	0.90651585	-0.22944183	-0.9503877	0.94557241	0.0063716003	-1.164244	0.9420962	-0.084075806	-1.0075931	1.395527	-0.26310183	-1.0555171	1.3915704	0.057383941	-1.1116939	1.4241755	-0.11656009	-1.0542175	1.0493355	-0.32428961	-1.2078798	1.082234	0.077094089	-0.85896939	0.90762866	-0.25267784	-1.1735732	0.85809186	0.16305476
65	0.256	-1.4187229	0.073038865	-0.21021144	-0.76398895	0.042924324	-0.032147903	-1.4011949	0.21009715	-0.24302356	-0.90257089	0.049218827	0.0064461026	-1.3765643	0.20097807	-0.16308104	-0.88889926	0.082474804	-0.075947987	-1.4378269	0.26192115	-0.19656654	-0.95340613	0.026467944	-0.041766565	-1.0853978	0.41560713	-0.25469035	-0.91593893	0.45223515	0.051809682	-1.0709732	0.37607334	-0.13853079	-0.92545512	0.45654572	-0.076423461	-1.0459191	0.79200326	-0.28010094	-0.99603395	0.86850395	0.097732869	-0.97857195	0.90695628	-0.22898705	-0.94477254	0.94598782	0.0070802897	-1.1587609	0.94230917	-0.084139042	-1.0018604	1.3961001	-0.26255098	-1.0491801	1.3919462	0.058090854	-1.1060511	1.4248811	-0.11567017	-1.0500849	1.0502652	-0.32467402	-1.2007215	1.0821955	0.078655374	-0.85581482	0.90710909	-0.25397678	-1.1659152	0.8578532	0.16393355
66	0.26	-1.4064861	0.075366946	-0.20913359	-0.76376287	0.042663529	-0.032246898	-1.3903325	0.21223935	-0.24200637	-0.90246053	0.049208151	0.0064586594	-1.3659782	0.20349567	-0.1619849	-0.88865718	0.082475346	-0.075994018	-1.427616	0.26399455	-0.19556248	-0.95338204	0.0265112	-0.041736927	-1.073327	0.41532426	-0.25397617	-0.91350123	0.45242053	0.052283291	-1.0596921	0.37668165	-0.13727715	-0.92295582	0.45652041	-0.075971988	-1.0394702	0.7921043	-0.27923758	-0.9910615	0.86878834	0.098207283	-0.97294998	0.90741425	-0.22861758	-0.93889083	0.94640921	0.0077224491	-1.1533836	0.94250619	-0.08423577	-0.99610083	1.3966709	-0.26202486	-1.0428095	1.3923311	0.058762222	-1.1003859	1.4256441	-0.11475737	-1.0459581	1.0512019	-0.32504123	-1.1935619	1.082138	0.080245363	-0.8525274	0.90654316	-0.25526897	-1.1580084	0.85761584	0.16481829
67	0.264	-1.3936302	0.077473995	-0.20801963	-0.76358323	0.042451467	-0.032401234	-1.379246	0.21419705	-0.24095312	-0.90237923	0.049204551	0.0064690968	-1.355216	0.20596723	-0.16085605	-0.88845936	0.082490854	-0.076048412	-1.4175478	0.26580269	-0.1945792	-0.9533813	0.026542755	-0.041716538	-1.0613314	0.41520665	-0.25314837	-0.91116158	0.45264051	0.052736071	-1.0487775	0.37735034	-0.1358673	-0.92055985	0.45661954	-0.075583032	-1.0331113	0.79223917	-0.27841896	-0.98602234	0.86908046	0.098678401	-0.9674451	0.90789463	-0.22832051	-0.93312294	0.94688394	0.0084258455	-1.1481046	0.94270646	-0.084369298	-0.99038841	1.3972466	-0.2615299	-1.0364289	1.3927414	0.059403513	-1.0947094	1.4264637	-0.11384163	-1.0418407	1.0521505	-0.32540687	-1.1863735	1.0820442	0.081829912	-0.84903037	0.90595571	-0.25648761	-1.1497858	0.85740069	0.16572839
68	0.268	-1.3803048	0.07936976	-0.20683995	-0.76343621	0.042282698	-0.032572566	-1.368003	0.21599186	-0.23987734	-0.90231645	0.049208469	0.0064756289	-1.3442037	0.20836003	-0.1597136	-0.88829965	0.082515155	-0.076100346	-1.4076321	0.26730901	-0.19360178	-0.95339859	0.026563698	-0.041703833	-1.0493127	0.41526207	-0.25224678	-0.90890401	0.45287559	0.053172054	-1.0378511	0.37812192	-0.13439228	-0.91828584	0.45684457	-0.075242684	-1.0268286	0.79242014	-0.27765779	-0.98117665	0.86934114	0.099107047	-0.96205891	0.90840659	-0.22808111	-0.9278008	0.94743555	0.0093002288	-1.1429037	0.94292635	-0.084524051	-0.98475229	1.3978333	-0.26106511	-1.030061	1.3931822	0.060034505	-1.0890335	1.4273217	-0.11293942	-1.0377308	1.0531118	-0.32577404	-1.1790704	1.0818767	0.083328566	-0.84544163	0.90538416	-0.25765398	-1.1412959	0.8572118	0.16665699
69	0.272	-1.366583	0.081073072	-0.20560936	-0.763304	0.042151668	-0.032713915	-1.3566442	0.21765627	-0.23878316	-0.90226419	0.049219458	0.0064791073	-1.3329572	0.21065425	-0.15856964	-0.88816213	0.082542391	-0.076143252	-1.397788	0.26849932	-0.19260974	-0.95342656	0.026576568	-0.041700394	-1.0372534	0.41550523	-0.2512877	-0.90671027	0.45310466	0.053597761	-1.0265303	0.3790517	-0.13294049	-0.9160651	0.45717531	-0.074934761	-1.0206086	0.79266352	-0.27696336	-0.97676365	0.86954007	0.099453307	-0.95677081	0.90895848	-0.22789549	-0.92287856	0.94804703	0.010328211	-1.1377593	0.94316973	-0.084657244	-0.97918108	1.3984366	-0.26062027	-1.0237393	1.3936524	0.060673193	-1.0833694	1.4281839	-0.1120589	-1.0336281	1.0540842	-0.32613542	-1.1715305	1.0815871	0.084636444	-0.84201303	0.90484581	-0.25885691	-1.132747	0.85702733	0.16756825
